<mxfile host="app.diagrams.net" modified="2023-07-25T11:08:25.660Z" agent="Mozilla/5.0 (Windows NT 10.0; Win64; x64) AppleWebKit/537.36 (KHTML, like Gecko) Chrome/114.0.0.0 Safari/537.36" etag="uFukiFu2JhB1vjGkMXqU" version="21.6.5" type="device">
  <diagram name="Página-1" id="yoO49O4tcP61Vu9nxvOO">
    <mxGraphModel dx="1050" dy="581" grid="1" gridSize="10" guides="1" tooltips="1" connect="1" arrows="1" fold="1" page="1" pageScale="1" pageWidth="827" pageHeight="1169" math="0" shadow="0">
      <root>
        <mxCell id="0" />
        <mxCell id="1" parent="0" />
        <mxCell id="KFC3dYFLQTXF_Lw2RYxY-4" style="edgeStyle=orthogonalEdgeStyle;rounded=0;orthogonalLoop=1;jettySize=auto;html=1;entryX=0.5;entryY=0;entryDx=0;entryDy=0;entryPerimeter=0;" edge="1" parent="1" source="KFC3dYFLQTXF_Lw2RYxY-1" target="KFC3dYFLQTXF_Lw2RYxY-2">
          <mxGeometry relative="1" as="geometry" />
        </mxCell>
        <mxCell id="KFC3dYFLQTXF_Lw2RYxY-10" style="edgeStyle=orthogonalEdgeStyle;rounded=0;orthogonalLoop=1;jettySize=auto;html=1;entryX=0;entryY=0.5;entryDx=0;entryDy=0;" edge="1" parent="1" source="KFC3dYFLQTXF_Lw2RYxY-1" target="KFC3dYFLQTXF_Lw2RYxY-8">
          <mxGeometry relative="1" as="geometry" />
        </mxCell>
        <mxCell id="KFC3dYFLQTXF_Lw2RYxY-11" style="edgeStyle=orthogonalEdgeStyle;rounded=0;orthogonalLoop=1;jettySize=auto;html=1;entryX=0;entryY=0.5;entryDx=0;entryDy=0;" edge="1" parent="1" source="KFC3dYFLQTXF_Lw2RYxY-1" target="KFC3dYFLQTXF_Lw2RYxY-9">
          <mxGeometry relative="1" as="geometry">
            <Array as="points">
              <mxPoint x="400" y="110" />
              <mxPoint x="400" y="135" />
            </Array>
          </mxGeometry>
        </mxCell>
        <mxCell id="KFC3dYFLQTXF_Lw2RYxY-1" value="Filme" style="rounded=0;whiteSpace=wrap;html=1;" vertex="1" parent="1">
          <mxGeometry x="230" y="80" width="120" height="60" as="geometry" />
        </mxCell>
        <mxCell id="KFC3dYFLQTXF_Lw2RYxY-2" value="Possui" style="strokeWidth=2;html=1;shape=mxgraph.flowchart.decision;whiteSpace=wrap;" vertex="1" parent="1">
          <mxGeometry x="240" y="200" width="100" height="100" as="geometry" />
        </mxCell>
        <mxCell id="KFC3dYFLQTXF_Lw2RYxY-5" style="edgeStyle=orthogonalEdgeStyle;rounded=0;orthogonalLoop=1;jettySize=auto;html=1;" edge="1" parent="1" source="KFC3dYFLQTXF_Lw2RYxY-3" target="KFC3dYFLQTXF_Lw2RYxY-2">
          <mxGeometry relative="1" as="geometry">
            <mxPoint x="290" y="300" as="targetPoint" />
            <Array as="points">
              <mxPoint x="290" y="280" />
              <mxPoint x="290" y="280" />
            </Array>
          </mxGeometry>
        </mxCell>
        <mxCell id="KFC3dYFLQTXF_Lw2RYxY-17" style="edgeStyle=orthogonalEdgeStyle;rounded=0;orthogonalLoop=1;jettySize=auto;html=1;" edge="1" parent="1" source="KFC3dYFLQTXF_Lw2RYxY-3" target="KFC3dYFLQTXF_Lw2RYxY-14">
          <mxGeometry relative="1" as="geometry" />
        </mxCell>
        <mxCell id="KFC3dYFLQTXF_Lw2RYxY-3" value="Genero" style="rounded=0;whiteSpace=wrap;html=1;" vertex="1" parent="1">
          <mxGeometry x="230" y="380" width="120" height="60" as="geometry" />
        </mxCell>
        <mxCell id="KFC3dYFLQTXF_Lw2RYxY-6" value="1" style="text;html=1;align=center;verticalAlign=middle;resizable=0;points=[];autosize=1;strokeColor=none;fillColor=none;" vertex="1" parent="1">
          <mxGeometry x="300" y="350" width="30" height="30" as="geometry" />
        </mxCell>
        <mxCell id="KFC3dYFLQTXF_Lw2RYxY-7" value="n" style="text;html=1;align=center;verticalAlign=middle;resizable=0;points=[];autosize=1;strokeColor=none;fillColor=none;" vertex="1" parent="1">
          <mxGeometry x="300" y="140" width="30" height="30" as="geometry" />
        </mxCell>
        <mxCell id="KFC3dYFLQTXF_Lw2RYxY-8" value="Nome" style="ellipse;whiteSpace=wrap;html=1;" vertex="1" parent="1">
          <mxGeometry x="450" y="80" width="50" height="30" as="geometry" />
        </mxCell>
        <mxCell id="KFC3dYFLQTXF_Lw2RYxY-9" value="Descrição" style="ellipse;whiteSpace=wrap;html=1;" vertex="1" parent="1">
          <mxGeometry x="450" y="120" width="75" height="30" as="geometry" />
        </mxCell>
        <mxCell id="KFC3dYFLQTXF_Lw2RYxY-13" value="Nome" style="ellipse;whiteSpace=wrap;html=1;" vertex="1" parent="1">
          <mxGeometry x="450" y="80" width="50" height="30" as="geometry" />
        </mxCell>
        <mxCell id="KFC3dYFLQTXF_Lw2RYxY-14" value="Nome" style="ellipse;whiteSpace=wrap;html=1;" vertex="1" parent="1">
          <mxGeometry x="450" y="395" width="50" height="30" as="geometry" />
        </mxCell>
      </root>
    </mxGraphModel>
  </diagram>
</mxfile>
